<?xml version="1.0" standalone="no"?>
<!DOCTYPE svg PUBLIC "-//W3C//DTD SVG 20010904//EN"
 "http://www.w3.org/TR/2001/REC-SVG-20010904/DTD/svg10.dtd">
<svg version="1.0" xmlns="http://www.w3.org/2000/svg"
 width="300.000000pt" height="250.000000pt" viewBox="0 0 300.000000 250.000000"
 preserveAspectRatio="xMidYMid meet">

<g transform="translate(0.000000,250.000000) scale(0.100000,-0.100000)"
fill="#000000" stroke="none">
<path d="M725 2480 c-68 -27 -115 -68 -150 -131 l-30 -54 0 -1045 0 -1045 31
-55 c17 -30 50 -70 73 -87 83 -64 71 -63 858 -63 675 0 715 1 763 19 69 26
121 71 156 133 l29 53 0 1045 c0 1005 -1 1046 -19 1080 -36 67 -77 109 -134
137 l-57 28 -735 2 c-706 2 -737 1 -785 -17z m1516 -208 l29 -32 0 -270 0
-270 -28 -31 -27 -31 -715 1 -715 1 -27 30 -28 30 0 271 0 271 34 34 34 34
707 -2 707 -3 29 -33z m-1178 -843 c39 -17 52 -53 51 -135 -2 -127 -36 -149
-219 -142 -106 4 -107 4 -136 36 -27 30 -29 38 -29 111 0 73 2 81 29 110 l29
31 126 0 c70 0 136 -5 149 -11z m598 -18 c27 -28 29 -34 29 -111 0 -130 -26
-150 -196 -150 -158 0 -184 21 -184 150 0 77 2 83 29 111 l29 29 132 0 132 0
29 -29z m560 19 c33 -18 49 -64 49 -139 0 -64 -3 -74 -29 -103 -29 -32 -30
-32 -136 -36 -184 -7 -218 15 -218 144 0 80 13 116 47 132 28 14 262 15 287 2z
m-1158 -481 c39 -18 52 -53 50 -135 -4 -130 -28 -147 -205 -142 l-120 3 -29
33 c-26 29 -29 39 -29 103 0 73 16 120 47 138 24 14 256 14 286 0z m598 -18
c27 -28 29 -34 29 -113 -1 -129 -25 -148 -183 -148 -173 0 -197 18 -197 150 0
77 2 83 29 111 l29 29 132 0 132 0 29 -29z m560 19 c33 -18 49 -64 49 -139 0
-64 -3 -74 -29 -103 l-29 -33 -124 -3 c-108 -2 -127 0 -155 17 -38 24 -51 63
-47 146 4 68 17 98 48 113 28 14 262 15 287 2z m-1139 -499 c31 -28 32 -32 33
-108 0 -88 -16 -126 -61 -143 -14 -6 -73 -10 -131 -10 -164 0 -193 23 -193
148 1 123 26 141 197 142 121 0 123 0 155 -29z m579 0 c27 -28 29 -34 29 -111
0 -134 -21 -150 -190 -150 -169 0 -190 16 -190 150 0 77 2 83 29 111 l29 29
132 0 132 0 29 -29z m554 17 c39 -18 55 -57 55 -137 0 -64 -3 -74 -29 -103
l-29 -33 -136 0 c-134 0 -136 0 -163 27 -26 26 -27 32 -26 115 2 84 4 89 33
116 29 26 34 27 150 27 71 0 130 -5 145 -12z"/>
<path d="M1819 2181 l-29 -29 0 -179 c0 -243 3 -247 210 -241 119 3 122 4 146
31 23 27 24 32 24 208 l0 181 -29 29 -29 29 -132 0 -132 0 -29 -29z m259 -208
l3 -143 -98 0 -98 0 3 144 3 144 92 -1 92 -2 3 -142z"/>
</g>
</svg>
