<?xml version="1.0" standalone="no"?>
<!DOCTYPE svg PUBLIC "-//W3C//DTD SVG 20010904//EN"
 "http://www.w3.org/TR/2001/REC-SVG-20010904/DTD/svg10.dtd">
<svg version="1.0" xmlns="http://www.w3.org/2000/svg"
 width="980.000000pt" height="736.000000pt" viewBox="0 0 980.000000 736.000000"
 preserveAspectRatio="xMidYMid meet">

<g transform="translate(0.000000,736.000000) scale(0.100000,-0.100000)"
fill="#000000" stroke="none">
<path d="M4442 3688 c-419 -2015 -762 -3669 -762 -3676 0 -10 95 -12 457 -10
l457 3 763 3660 c419 2013 763 3666 763 3673 0 9 -98 12 -458 12 l-457 0 -763
-3662z"/>
<path d="M1222 4907 l-1222 -1222 1228 -1228 1227 -1227 610 0 610 0 -1225
1225 -1225 1225 1225 1225 1225 1225 -615 0 -615 0 -1223 -1223z"/>
<path d="M7350 4905 l1225 -1225 -1225 -1225 -1225 -1225 610 0 610 0 1227
1227 1228 1228 -1222 1222 -1223 1223 -615 0 -615 0 1225 -1225z"/>
</g>
</svg>
