<?xml version="1.0" standalone="no"?>
<!DOCTYPE svg PUBLIC "-//W3C//DTD SVG 20010904//EN"
 "http://www.w3.org/TR/2001/REC-SVG-20010904/DTD/svg10.dtd">
<svg version="1.0" xmlns="http://www.w3.org/2000/svg"
 width="512.000000pt" height="407.000000pt" viewBox="0 0 512.000000 407.000000"
 preserveAspectRatio="xMidYMid meet">

<g transform="translate(0.000000,407.000000) scale(0.100000,-0.100000)"
fill="#000000" stroke="none">
<path d="M1314 3840 c-233 -34 -455 -233 -613 -547 -153 -306 -280 -776 -343
-1268 -19 -154 -22 -227 -23 -500 0 -219 4 -347 13 -405 46 -287 139 -481 273
-566 58 -36 144 -57 209 -51 110 12 178 44 548 255 468 267 558 317 716 394
l130 63 310 3 c297 3 314 2 371 -19 90 -32 309 -149 722 -385 427 -244 467
-266 549 -290 86 -25 204 -23 276 5 161 63 267 266 314 600 23 167 15 652 -15
871 -146 1072 -455 1703 -891 1824 -133 36 -256 29 -364 -22 -36 -18 -105 -68
-171 -125 -114 -100 -200 -153 -295 -182 -121 -37 -821 -37 -950 -1 -96 27
-179 77 -294 178 -124 109 -200 152 -296 167 -72 12 -101 12 -176 1z m2580
-887 c82 -28 172 -122 197 -203 28 -96 6 -215 -57 -297 -115 -152 -362 -160
-494 -17 -61 67 -84 124 -84 214 -1 66 3 84 32 143 75 151 243 218 406 160z
m-2457 -60 c52 -34 68 -113 34 -169 -20 -33 -75 -64 -114 -64 -62 0 -135 89
-122 149 20 92 124 135 202 84z m-248 -259 c84 -71 40 -209 -71 -221 -100 -11
-170 96 -123 187 33 63 138 82 194 34z m516 -7 c64 -64 51 -157 -25 -199 -89
-47 -190 14 -190 116 0 31 7 45 39 77 35 35 44 39 91 39 46 0 56 -4 85 -33z
m-257 -251 c34 -32 37 -38 37 -91 0 -53 -3 -59 -37 -91 -31 -28 -46 -34 -81
-34 -57 0 -107 33 -126 84 -31 81 33 166 126 166 35 0 50 -6 81 -34z m1904
-229 c75 -37 135 -98 171 -176 42 -89 43 -189 2 -279 -33 -73 -112 -152 -182
-183 -61 -27 -165 -35 -232 -19 -120 29 -225 135 -258 262 -43 165 47 334 214
404 82 35 204 30 285 -9z m-1312 -1 c99 -52 171 -150 185 -257 13 -88 -34
-209 -106 -276 -13 -12 -51 -34 -84 -50 -49 -23 -74 -28 -135 -28 -130 0 -234
65 -291 180 -27 55 -31 75 -31 140 0 61 5 85 26 128 41 82 105 143 182 172 55
21 207 15 254 -9z"/>
<path d="M3045 2128 c-73 -37 -136 -108 -165 -183 l-10 -25 120 0 120 0 0 115
c0 128 0 127 -65 93z"/>
<path d="M3290 2035 l0 -115 115 0 c72 0 115 4 115 10 0 25 -31 81 -66 120
-37 41 -126 100 -151 100 -10 0 -13 -30 -13 -115z"/>
<path d="M2881 1713 c33 -88 120 -171 207 -197 22 -7 22 -7 22 108 l0 116
-120 0 -120 0 11 -27z"/>
<path d="M3290 1624 c0 -115 0 -115 23 -109 42 13 104 54 136 90 31 36 71 105
71 125 0 6 -42 10 -115 10 l-115 0 0 -116z"/>
</g>
</svg>
