<?xml version="1.0" standalone="no"?>
<!DOCTYPE svg PUBLIC "-//W3C//DTD SVG 20010904//EN"
 "http://www.w3.org/TR/2001/REC-SVG-20010904/DTD/svg10.dtd">
<svg version="1.0" xmlns="http://www.w3.org/2000/svg"
 width="260.000000pt" height="340.000000pt" viewBox="0 0 260.000000 340.000000"
 preserveAspectRatio="xMidYMid meet">

<g transform="translate(0.000000,340.000000) scale(0.100000,-0.100000)"
fill="#000000" stroke="none">
<path d="M1100 3383 c-503 -76 -925 -460 -1054 -956 -152 -584 123 -1204 654
-1476 174 -90 331 -134 524 -147 90 -7 93 -6 109 17 22 30 21 47 -4 140 -28
105 -39 114 -146 129 -345 48 -629 245 -782 540 -79 152 -112 292 -112 470 0
273 89 499 274 697 127 136 306 241 492 289 82 22 124 26 235 27 75 1 162 -5
195 -12 454 -96 778 -450 825 -901 15 -152 -9 -328 -65 -476 -22 -56 -26 -80
-21 -126 10 -101 82 -248 122 -248 7 0 30 26 50 57 147 228 223 548 194 813
-26 240 -104 449 -238 639 -63 89 -210 236 -302 300 -274 193 -621 275 -950
224z"/>
<path d="M1239 3006 c-63 -17 -103 -48 -128 -101 -40 -85 -19 -191 48 -248 90
-75 237 -63 305 26 63 82 52 212 -23 280 -52 47 -129 63 -202 43z"/>
<path d="M1023 2473 c-62 -3 -74 -7 -84 -25 -18 -33 19 -58 85 -59 72 0 116
-18 143 -58 23 -34 23 -35 23 -400 0 -271 -4 -372 -13 -390 -23 -45 -60 -63
-139 -68 -103 -7 -143 -37 -102 -77 13 -14 54 -16 289 -16 l275 0 16 25 c14
22 16 78 15 537 -1 349 -5 516 -13 525 -8 10 -58 13 -217 11 -113 -1 -239 -4
-278 -5z"/>
<path d="M1802 1934 c-13 -9 -27 -27 -32 -40 -5 -13 -17 -169 -25 -347 -8
-177 -18 -340 -21 -362 -9 -73 -47 -98 -141 -97 -71 1 -93 -12 -93 -59 0 -54
139 -438 212 -587 l71 -144 -5 -71 c-6 -86 -4 -93 32 -112 44 -22 562 -22 580
0 9 11 11 38 7 96 -7 92 6 205 32 281 10 29 45 112 78 183 105 227 129 406 60
449 -30 18 -201 28 -249 14 -31 -9 -45 -7 -92 12 -43 17 -70 21 -127 19 -95
-5 -98 0 -110 173 -11 179 -38 486 -44 525 -7 37 -56 83 -89 83 -12 0 -32 -7
-44 -16z"/>
</g>
</svg>
