<?xml version="1.0" standalone="no"?>
<!DOCTYPE svg PUBLIC "-//W3C//DTD SVG 20010904//EN"
 "http://www.w3.org/TR/2001/REC-SVG-20010904/DTD/svg10.dtd">
<svg version="1.0" xmlns="http://www.w3.org/2000/svg"
 width="128.000000pt" height="128.000000pt" viewBox="0 0 128.000000 128.000000"
 preserveAspectRatio="xMidYMid meet">

<g transform="translate(0.000000,128.000000) scale(0.100000,-0.100000)"
fill="#000000" stroke="none">
<path d="M500 1264 c-234 -50 -436 -254 -485 -489 -95 -454 306 -855 760 -760
238 50 440 252 490 490 95 456 -309 857 -765 759z m7 -364 c85 -52 49 -200
-49 -200 -47 0 -84 34 -94 86 -11 60 42 133 96 134 8 0 29 -9 47 -20z m374 -6
c70 -63 30 -194 -59 -194 -68 0 -112 69 -91 144 19 68 101 95 150 50z m-563
-439 c98 -97 257 -148 393 -125 89 15 192 66 251 125 70 68 92 58 39 -18 -42
-61 -130 -141 -187 -170 -153 -78 -318 -49 -452 77 -55 52 -112 126 -112 145
0 22 23 10 68 -34z"/>
</g>
</svg>
