<?xml version="1.0" encoding="utf-8"?>
<!-- Generator: Adobe Illustrator 24.0.1, SVG Export Plug-In . SVG Version: 6.00 Build 0)  -->
<svg version="1.1" id="Слой_1" xmlns="http://www.w3.org/2000/svg" xmlns:xlink="http://www.w3.org/1999/xlink" x="0px" y="0px"
	 viewBox="0 0 320 320" style="enable-background:new 0 0 320 320;" xml:space="preserve">
<style type="text/css">
	.st0{fill:#5F5F5F;}
</style>
<g transform="translate(0.000000,320.000000) scale(0.100000,-0.100000)">
	<path class="st0" d="M1550,3119c-14-6-36-20-49-32s-119-215-235-452l-212-430l-154-22C20,2056,70,2066,28,2009c-30-40-34-98-10-145
		c12-23,156-170,360-368l339-328l-19-107C592,441,560,246,560,212c0-78,76-148,153-138c24,3,195,87,458,225c231,122,424,221,429,221
		s198-99,430-221c259-136,435-223,458-225c48-6,99,20,130,66c22,32,24,42,18,110c-4,41-39,264-80,495l-73,420l271,264
		c436,426,434,423,441,464c16,83-26,148-108,171c-29,8-252,43-496,78l-445,63l-212,430c-117,237-223,440-235,452
		C1655,3127,1600,3139,1550,3119z"/>
</g>
</svg>
