<?xml version="1.0" standalone="no"?>
<!DOCTYPE svg PUBLIC "-//W3C//DTD SVG 20010904//EN"
 "http://www.w3.org/TR/2001/REC-SVG-20010904/DTD/svg10.dtd">
<svg version="1.0" xmlns="http://www.w3.org/2000/svg"
 width="310.000000pt" height="310.000000pt" viewBox="0 0 310.000000 310.000000"
 preserveAspectRatio="xMidYMid meet">

<g transform="translate(0.000000,310.000000) scale(0.100000,-0.100000)"
fill="#000000" stroke="none">
<path d="M1380 3090 c-381 -53 -660 -189 -921 -450 -230 -230 -368 -486 -431
-803 -32 -160 -32 -414 0 -574 127 -638 611 -1115 1257 -1240 138 -26 406 -24
552 5 319 64 573 200 804 431 230 231 367 486 431 804 32 157 32 413 0 572
-63 320 -199 574 -431 806 -229 228 -492 370 -798 429 -114 22 -369 33 -463
20z m-87 -222 c-5 -7 -39 -49 -75 -93 -131 -162 -228 -326 -308 -524 l-47
-116 -267 -3 c-209 -2 -266 0 -266 10 0 20 97 176 150 243 60 74 198 209 265
257 135 97 261 159 420 209 100 31 143 37 128 17z m677 -30 c268 -86 513 -263
682 -495 51 -69 118 -185 118 -202 0 -8 -82 -11 -268 -11 l-268 0 -23 68 c-57
168 -209 435 -332 582 -94 112 -90 104 -44 96 22 -4 83 -21 135 -38z m-334
-75 c127 -130 227 -272 309 -438 40 -82 76 -160 80 -172 l6 -23 -481 0 -481 0
6 23 c31 100 183 370 271 478 65 80 189 209 202 209 7 0 47 -35 88 -77z m-831
-875 c-4 -29 -11 -82 -16 -118 -11 -84 -11 -356 0 -440 5 -36 12 -89 16 -117
l8 -53 -285 0 -284 0 -23 108 c-21 98 -23 124 -18 317 4 196 11 251 42 343 3
9 70 12 286 12 l282 0 -8 -52z m1294 0 c41 -199 41 -477 0 -675 l-10 -53 -539
0 -539 0 -10 53 c-42 204 -42 473 0 675 l10 52 539 0 539 0 10 -52z m773 -28
c32 -137 43 -283 30 -421 -7 -68 -20 -158 -30 -199 l-17 -75 -284 -3 -284 -2
8 52 c4 29 11 82 16 118 11 84 11 356 0 440 -5 36 -12 89 -16 118 l-8 52 284
-2 284 -3 17 -75z m-1963 -1010 c79 -198 192 -386 326 -547 46 -55 61 -79 50
-81 -21 -5 -175 41 -265 78 -236 97 -468 292 -612 515 -51 78 -78 129 -78 145
0 8 79 10 266 8 l267 -3 46 -115z m1116 98 c-16 -57 -150 -312 -204 -389 -55
-79 -200 -249 -249 -292 -11 -11 -26 -16 -31 -12 -27 16 -207 225 -260 301
-54 78 -191 338 -206 392 l-6 22 481 0 481 0 -6 -22z m745 9 c0 -22 -95 -173
-156 -250 -146 -179 -338 -326 -534 -407 -90 -37 -244 -83 -265 -78 -11 2 6
29 55 87 134 161 260 374 321 542 16 45 34 90 40 100 9 18 27 19 274 19 215 0
265 -3 265 -13z"/>
</g>
</svg>
